<mxfile host="app.diagrams.net" modified="2023-10-19T12:43:46.461Z" agent="Mozilla/5.0 (Windows NT 10.0; Win64; x64) AppleWebKit/537.36 (KHTML, like Gecko) Chrome/116.0.0.0 Safari/537.36 OPR/102.0.0.0" etag="FZ5eD8CbXjiaYObDWQoR" version="22.0.5" type="device">
  <diagram name="Page-1" id="_wAC_VCA0p9P3PtQ_74V">
    <mxGraphModel dx="1909" dy="1580" grid="1" gridSize="10" guides="1" tooltips="1" connect="1" arrows="1" fold="1" page="1" pageScale="1" pageWidth="850" pageHeight="1100" math="0" shadow="0">
      <root>
        <mxCell id="0" />
        <mxCell id="1" parent="0" />
        <mxCell id="CdXzb7p_uJ0kPg4sfLAn-1" value="Rotor" style="swimlane;fontStyle=1;align=center;verticalAlign=top;childLayout=stackLayout;horizontal=1;startSize=26;horizontalStack=0;resizeParent=1;resizeParentMax=0;resizeLast=0;collapsible=1;marginBottom=0;whiteSpace=wrap;html=1;" parent="1" vertex="1">
          <mxGeometry x="30" y="167" width="240" height="270" as="geometry">
            <mxRectangle x="90" y="210" width="70" height="30" as="alternateBounds" />
          </mxGeometry>
        </mxCell>
        <mxCell id="CdXzb7p_uJ0kPg4sfLAn-3" value="" style="line;strokeWidth=1;fillColor=none;align=left;verticalAlign=middle;spacingTop=-1;spacingLeft=3;spacingRight=3;rotatable=0;labelPosition=right;points=[];portConstraint=eastwest;strokeColor=inherit;" parent="CdXzb7p_uJ0kPg4sfLAn-1" vertex="1">
          <mxGeometry y="26" width="240" height="8" as="geometry" />
        </mxCell>
        <mxCell id="CdXzb7p_uJ0kPg4sfLAn-2" value="- encoding : String&lt;br&gt;- rotationPostion : int&lt;br&gt;- ringSetting : int&lt;br&gt;- notchPosition : int&lt;br&gt;- name : String&lt;br&gt;- wiring : int[]&lt;br&gt;- wiringReversed : int[]" style="text;strokeColor=none;fillColor=none;align=left;verticalAlign=top;spacingLeft=4;spacingRight=4;overflow=hidden;rotatable=0;points=[[0,0.5],[1,0.5]];portConstraint=eastwest;whiteSpace=wrap;html=1;" parent="CdXzb7p_uJ0kPg4sfLAn-1" vertex="1">
          <mxGeometry y="34" width="240" height="114" as="geometry" />
        </mxCell>
        <mxCell id="CdXzb7p_uJ0kPg4sfLAn-33" value="" style="line;strokeWidth=1;fillColor=none;align=left;verticalAlign=middle;spacingTop=-1;spacingLeft=3;spacingRight=3;rotatable=0;labelPosition=right;points=[];portConstraint=eastwest;strokeColor=inherit;" parent="CdXzb7p_uJ0kPg4sfLAn-1" vertex="1">
          <mxGeometry y="148" width="240" height="8" as="geometry" />
        </mxCell>
        <mxCell id="CdXzb7p_uJ0kPg4sfLAn-4" value="# Rotor(String, String, int, int, int)&lt;br&gt;+ encrypt(int, TranslationDirection) : int&lt;br&gt;- configureWiringForwards()&lt;br&gt;- configureWiringBackwards()&lt;br&gt;+ configureWiring(String)&lt;br&gt;+ isAtTurnoverPosition() : boolean&lt;br&gt;+ rotate()" style="text;strokeColor=none;fillColor=none;align=left;verticalAlign=top;spacingLeft=4;spacingRight=4;overflow=hidden;rotatable=0;points=[[0,0.5],[1,0.5]];portConstraint=eastwest;whiteSpace=wrap;html=1;" parent="CdXzb7p_uJ0kPg4sfLAn-1" vertex="1">
          <mxGeometry y="156" width="240" height="114" as="geometry" />
        </mxCell>
        <mxCell id="CdXzb7p_uJ0kPg4sfLAn-5" value="Reflector" style="swimlane;fontStyle=1;align=center;verticalAlign=top;childLayout=stackLayout;horizontal=1;startSize=26;horizontalStack=0;resizeParent=1;resizeParentMax=0;resizeLast=0;collapsible=1;marginBottom=0;whiteSpace=wrap;html=1;" parent="1" vertex="1">
          <mxGeometry x="-30" y="738" width="200" height="160" as="geometry" />
        </mxCell>
        <mxCell id="CdXzb7p_uJ0kPg4sfLAn-7" value="" style="line;strokeWidth=1;fillColor=none;align=left;verticalAlign=middle;spacingTop=-1;spacingLeft=3;spacingRight=3;rotatable=0;labelPosition=right;points=[];portConstraint=eastwest;strokeColor=inherit;" parent="CdXzb7p_uJ0kPg4sfLAn-5" vertex="1">
          <mxGeometry y="26" width="200" height="8" as="geometry" />
        </mxCell>
        <mxCell id="CdXzb7p_uJ0kPg4sfLAn-6" value="- encoding : String&lt;br&gt;- wiring : int[]&lt;br&gt;" style="text;strokeColor=none;fillColor=none;align=left;verticalAlign=top;spacingLeft=4;spacingRight=4;overflow=hidden;rotatable=0;points=[[0,0.5],[1,0.5]];portConstraint=eastwest;whiteSpace=wrap;html=1;" parent="CdXzb7p_uJ0kPg4sfLAn-5" vertex="1">
          <mxGeometry y="34" width="200" height="44" as="geometry" />
        </mxCell>
        <mxCell id="CdXzb7p_uJ0kPg4sfLAn-8" value="# Reflector(String, String)&lt;br&gt;+ configureWiring(String)&lt;br&gt;+ encrypt(int) : int&lt;br&gt;- validateEncoding() : boolean" style="text;strokeColor=none;fillColor=none;align=left;verticalAlign=top;spacingLeft=4;spacingRight=4;overflow=hidden;rotatable=0;points=[[0,0.5],[1,0.5]];portConstraint=eastwest;whiteSpace=wrap;html=1;" parent="CdXzb7p_uJ0kPg4sfLAn-5" vertex="1">
          <mxGeometry y="78" width="200" height="82" as="geometry" />
        </mxCell>
        <mxCell id="CdXzb7p_uJ0kPg4sfLAn-9" value="Plugboard" style="swimlane;fontStyle=1;align=center;verticalAlign=top;childLayout=stackLayout;horizontal=1;startSize=26;horizontalStack=0;resizeParent=1;resizeParentMax=0;resizeLast=0;collapsible=1;marginBottom=0;whiteSpace=wrap;html=1;" parent="1" vertex="1">
          <mxGeometry x="-10" y="460" width="250" height="260" as="geometry" />
        </mxCell>
        <mxCell id="CdXzb7p_uJ0kPg4sfLAn-10" value="- cablesUsed : int&lt;br&gt;- wiring : int[]" style="text;strokeColor=none;fillColor=none;align=left;verticalAlign=top;spacingLeft=4;spacingRight=4;overflow=hidden;rotatable=0;points=[[0,0.5],[1,0.5]];portConstraint=eastwest;whiteSpace=wrap;html=1;" parent="CdXzb7p_uJ0kPg4sfLAn-9" vertex="1">
          <mxGeometry y="26" width="250" height="64" as="geometry" />
        </mxCell>
        <mxCell id="CdXzb7p_uJ0kPg4sfLAn-11" value="" style="line;strokeWidth=1;fillColor=none;align=left;verticalAlign=middle;spacingTop=-1;spacingLeft=3;spacingRight=3;rotatable=0;labelPosition=right;points=[];portConstraint=eastwest;strokeColor=inherit;" parent="CdXzb7p_uJ0kPg4sfLAn-9" vertex="1">
          <mxGeometry y="90" width="250" height="8" as="geometry" />
        </mxCell>
        <mxCell id="CdXzb7p_uJ0kPg4sfLAn-12" value="+ Plugboard()&lt;br&gt;+ encrypt(int) : int&lt;br&gt;+ addCable(int, int)&lt;br&gt;+ removeCable(int, int)&lt;br&gt;+ initialiseWiring()&lt;br&gt;+ getPairedCharacters() : List&amp;lt;String&amp;gt;&lt;br&gt;- formatPairedCharacter() : String&lt;br&gt;- isCharacterWired(int) : boolean&lt;br&gt;- isCharacterPairWired(int, int) : boolean" style="text;strokeColor=none;fillColor=none;align=left;verticalAlign=top;spacingLeft=4;spacingRight=4;overflow=hidden;rotatable=0;points=[[0,0.5],[1,0.5]];portConstraint=eastwest;whiteSpace=wrap;html=1;" parent="CdXzb7p_uJ0kPg4sfLAn-9" vertex="1">
          <mxGeometry y="98" width="250" height="162" as="geometry" />
        </mxCell>
        <mxCell id="CdXzb7p_uJ0kPg4sfLAn-13" value="&amp;lt;&amp;lt;enum&amp;gt;&amp;gt;&lt;br&gt;TranslationDirection" style="swimlane;fontStyle=0;childLayout=stackLayout;horizontal=1;startSize=30;fillColor=none;horizontalStack=0;resizeParent=1;resizeParentMax=0;resizeLast=0;collapsible=1;marginBottom=0;whiteSpace=wrap;html=1;" parent="1" vertex="1">
          <mxGeometry x="30" y="60" width="140" height="74" as="geometry" />
        </mxCell>
        <mxCell id="CdXzb7p_uJ0kPg4sfLAn-14" value="FORWARDS, BACKWARDS" style="text;strokeColor=none;fillColor=none;align=left;verticalAlign=top;spacingLeft=4;spacingRight=4;overflow=hidden;rotatable=0;points=[[0,0.5],[1,0.5]];portConstraint=eastwest;whiteSpace=wrap;html=1;" parent="CdXzb7p_uJ0kPg4sfLAn-13" vertex="1">
          <mxGeometry y="30" width="140" height="44" as="geometry" />
        </mxCell>
        <mxCell id="CdXzb7p_uJ0kPg4sfLAn-29" value="EnigmaMachine" style="swimlane;fontStyle=1;align=center;verticalAlign=top;childLayout=stackLayout;horizontal=1;startSize=26;horizontalStack=0;resizeParent=1;resizeParentMax=0;resizeLast=0;collapsible=1;marginBottom=0;whiteSpace=wrap;html=1;" parent="1" vertex="1">
          <mxGeometry x="330" y="520" width="450" height="330" as="geometry" />
        </mxCell>
        <mxCell id="CdXzb7p_uJ0kPg4sfLAn-30" value="- rotors : List&amp;lt;Rotor&amp;gt;&lt;br&gt;- plugBoard : Plugboard&lt;br&gt;- reflector : Reflector&lt;br&gt;" style="text;strokeColor=none;fillColor=none;align=left;verticalAlign=top;spacingLeft=4;spacingRight=4;overflow=hidden;rotatable=0;points=[[0,0.5],[1,0.5]];portConstraint=eastwest;whiteSpace=wrap;html=1;" parent="CdXzb7p_uJ0kPg4sfLAn-29" vertex="1">
          <mxGeometry y="26" width="450" height="54" as="geometry" />
        </mxCell>
        <mxCell id="CdXzb7p_uJ0kPg4sfLAn-31" value="" style="line;strokeWidth=1;fillColor=none;align=left;verticalAlign=middle;spacingTop=-1;spacingLeft=3;spacingRight=3;rotatable=0;labelPosition=right;points=[];portConstraint=eastwest;strokeColor=inherit;" parent="CdXzb7p_uJ0kPg4sfLAn-29" vertex="1">
          <mxGeometry y="80" width="450" height="8" as="geometry" />
        </mxCell>
        <mxCell id="CdXzb7p_uJ0kPg4sfLAn-32" value="- EnigmaMachine(List&amp;lt;Rotor&amp;gt;, Plugboard, Reflector)&lt;br&gt;+ encrypt(String) : String&lt;br&gt;+ encrypt(char) : char&lt;br&gt;+ displayCurrentSettings() : String&lt;br&gt;+ resetEnigmaMachine()&lt;br&gt;+ setReflector(Reflector)&lt;br&gt;+ setRotors(List&amp;lt;Rotor&amp;gt;)&lt;br&gt;+ configureRotorRingSettings(int[])&lt;br&gt;+ configureRotorStartPosition(int[])&lt;br&gt;+ addCables(List&amp;lt;String&amp;gt;)&lt;br&gt;+ removeCables(List&amp;lt;String&amp;gt;)&lt;br&gt;+ createDefaultEnigma() : EnigmaMachine&lt;br&gt;- parsePlugboardCableSetting(String)&lt;br&gt;- rotate()&lt;br&gt;+ createCustomEnigma(List&amp;lt;Rotor&amp;gt;, Plugboard, Reflector) : EnigmaMachine" style="text;strokeColor=none;fillColor=none;align=left;verticalAlign=top;spacingLeft=4;spacingRight=4;overflow=hidden;rotatable=0;points=[[0,0.5],[1,0.5]];portConstraint=eastwest;whiteSpace=wrap;html=1;" parent="CdXzb7p_uJ0kPg4sfLAn-29" vertex="1">
          <mxGeometry y="88" width="450" height="242" as="geometry" />
        </mxCell>
        <mxCell id="CdXzb7p_uJ0kPg4sfLAn-37" value="&lt;u&gt;RotorFactory&lt;/u&gt;" style="swimlane;fontStyle=1;align=center;verticalAlign=top;childLayout=stackLayout;horizontal=1;startSize=26;horizontalStack=0;resizeParent=1;resizeParentMax=0;resizeLast=0;collapsible=1;marginBottom=0;whiteSpace=wrap;html=1;" parent="1" vertex="1">
          <mxGeometry x="340" y="171" width="430" height="140" as="geometry" />
        </mxCell>
        <mxCell id="CdXzb7p_uJ0kPg4sfLAn-39" value="" style="line;strokeWidth=1;fillColor=none;align=left;verticalAlign=middle;spacingTop=-1;spacingLeft=3;spacingRight=3;rotatable=0;labelPosition=right;points=[];portConstraint=eastwest;strokeColor=inherit;" parent="CdXzb7p_uJ0kPg4sfLAn-37" vertex="1">
          <mxGeometry y="26" width="430" height="8" as="geometry" />
        </mxCell>
        <mxCell id="CdXzb7p_uJ0kPg4sfLAn-40" value="+ &lt;u&gt;buildCustomRotor&lt;/u&gt;(name : String,&lt;br&gt;&lt;span style=&quot;white-space: pre;&quot;&gt;&#x9;&lt;/span&gt;encoding :String,&lt;br&gt;&lt;span style=&quot;white-space: pre;&quot;&gt;&#x9;&lt;/span&gt;notchPosition : int,&lt;br&gt;&lt;span style=&quot;white-space: pre;&quot;&gt;&#x9;&lt;/span&gt;ringSetting : int,&lt;br&gt;&lt;span style=&quot;white-space: pre;&quot;&gt;&#x9;&lt;/span&gt;startPosition :int) : Rotor&lt;br&gt;+ &lt;u&gt;buildPresetRotor&lt;/u&gt;(name : String, ringSetting : int, startPosition : int) : Rotor" style="text;strokeColor=none;fillColor=none;align=left;verticalAlign=top;spacingLeft=4;spacingRight=4;overflow=hidden;rotatable=0;points=[[0,0.5],[1,0.5]];portConstraint=eastwest;whiteSpace=wrap;html=1;" parent="CdXzb7p_uJ0kPg4sfLAn-37" vertex="1">
          <mxGeometry y="34" width="430" height="106" as="geometry" />
        </mxCell>
        <mxCell id="CdXzb7p_uJ0kPg4sfLAn-45" value="" style="endArrow=open;html=1;endSize=12;startArrow=diamondThin;startSize=14;startFill=1;edgeStyle=orthogonalEdgeStyle;align=left;verticalAlign=bottom;rounded=0;exitX=1;exitY=0.5;exitDx=0;exitDy=0;entryX=0.514;entryY=-0.019;entryDx=0;entryDy=0;entryPerimeter=0;" parent="1" source="CdXzb7p_uJ0kPg4sfLAn-4" target="CdXzb7p_uJ0kPg4sfLAn-29" edge="1">
          <mxGeometry x="-1" y="3" relative="1" as="geometry">
            <mxPoint x="450" y="346" as="sourcePoint" />
            <mxPoint x="600" y="270" as="targetPoint" />
          </mxGeometry>
        </mxCell>
        <mxCell id="CdXzb7p_uJ0kPg4sfLAn-46" style="edgeStyle=orthogonalEdgeStyle;rounded=0;orthogonalLoop=1;jettySize=auto;html=1;exitX=0;exitY=0.5;exitDx=0;exitDy=0;entryX=1;entryY=0.5;entryDx=0;entryDy=0;dashed=1;" parent="1" source="CdXzb7p_uJ0kPg4sfLAn-40" target="CdXzb7p_uJ0kPg4sfLAn-2" edge="1">
          <mxGeometry relative="1" as="geometry" />
        </mxCell>
        <mxCell id="CdXzb7p_uJ0kPg4sfLAn-55" style="edgeStyle=orthogonalEdgeStyle;rounded=0;orthogonalLoop=1;jettySize=auto;html=1;exitX=0.5;exitY=0;exitDx=0;exitDy=0;entryX=1;entryY=0.5;entryDx=0;entryDy=0;dashed=1;" parent="1" source="CdXzb7p_uJ0kPg4sfLAn-47" target="CdXzb7p_uJ0kPg4sfLAn-8" edge="1">
          <mxGeometry relative="1" as="geometry" />
        </mxCell>
        <mxCell id="CdXzb7p_uJ0kPg4sfLAn-47" value="&lt;u&gt;ReflectorFactory&lt;/u&gt;" style="swimlane;fontStyle=1;align=center;verticalAlign=top;childLayout=stackLayout;horizontal=1;startSize=26;horizontalStack=0;resizeParent=1;resizeParentMax=0;resizeLast=0;collapsible=1;marginBottom=0;whiteSpace=wrap;html=1;" parent="1" vertex="1">
          <mxGeometry x="145" y="920" width="280" height="80" as="geometry" />
        </mxCell>
        <mxCell id="CdXzb7p_uJ0kPg4sfLAn-48" value="" style="line;strokeWidth=1;fillColor=none;align=left;verticalAlign=middle;spacingTop=-1;spacingLeft=3;spacingRight=3;rotatable=0;labelPosition=right;points=[];portConstraint=eastwest;strokeColor=inherit;" parent="CdXzb7p_uJ0kPg4sfLAn-47" vertex="1">
          <mxGeometry y="26" width="280" height="8" as="geometry" />
        </mxCell>
        <mxCell id="CdXzb7p_uJ0kPg4sfLAn-49" value="+ &lt;u&gt;buildCustomReflector(&lt;/u&gt;String, String) : Reflector&lt;br&gt;+ &lt;u&gt;buildPresetReflector&lt;/u&gt;(String) : Reflector" style="text;strokeColor=none;fillColor=none;align=left;verticalAlign=top;spacingLeft=4;spacingRight=4;overflow=hidden;rotatable=0;points=[[0,0.5],[1,0.5]];portConstraint=eastwest;whiteSpace=wrap;html=1;" parent="CdXzb7p_uJ0kPg4sfLAn-47" vertex="1">
          <mxGeometry y="34" width="280" height="46" as="geometry" />
        </mxCell>
        <mxCell id="CdXzb7p_uJ0kPg4sfLAn-52" value="" style="endArrow=open;html=1;endSize=12;startArrow=diamondThin;startSize=14;startFill=1;edgeStyle=orthogonalEdgeStyle;align=left;verticalAlign=bottom;rounded=0;exitX=1;exitY=0.5;exitDx=0;exitDy=0;entryX=-0.005;entryY=0.297;entryDx=0;entryDy=0;entryPerimeter=0;" parent="1" source="CdXzb7p_uJ0kPg4sfLAn-6" target="CdXzb7p_uJ0kPg4sfLAn-32" edge="1">
          <mxGeometry x="-1" y="3" relative="1" as="geometry">
            <mxPoint x="260" y="750" as="sourcePoint" />
            <mxPoint x="523" y="910" as="targetPoint" />
          </mxGeometry>
        </mxCell>
        <mxCell id="CdXzb7p_uJ0kPg4sfLAn-54" value="" style="endArrow=open;html=1;endSize=12;startArrow=diamondThin;startSize=14;startFill=1;edgeStyle=orthogonalEdgeStyle;align=left;verticalAlign=bottom;rounded=0;exitX=1;exitY=0.5;exitDx=0;exitDy=0;entryX=0;entryY=0.5;entryDx=0;entryDy=0;" parent="1" source="CdXzb7p_uJ0kPg4sfLAn-12" target="CdXzb7p_uJ0kPg4sfLAn-30" edge="1">
          <mxGeometry x="-1" y="3" relative="1" as="geometry">
            <mxPoint x="220.5" y="650" as="sourcePoint" />
            <mxPoint x="339.5" y="640" as="targetPoint" />
          </mxGeometry>
        </mxCell>
        <mxCell id="WNhP4XTEa9MC39SPgcuT-1" value="ComponentCache" style="swimlane;fontStyle=1;align=center;verticalAlign=top;childLayout=stackLayout;horizontal=1;startSize=26;horizontalStack=0;resizeParent=1;resizeParentMax=0;resizeLast=0;collapsible=1;marginBottom=0;whiteSpace=wrap;html=1;" vertex="1" parent="1">
          <mxGeometry x="490" y="880" width="290" height="180" as="geometry" />
        </mxCell>
        <mxCell id="WNhP4XTEa9MC39SPgcuT-2" value="- rotorCache : HashMap&amp;lt;String, Rotor&amp;gt;&lt;br&gt;- reflectorCache : HashMap&amp;lt;String, Reflector&amp;gt;" style="text;strokeColor=none;fillColor=none;align=left;verticalAlign=top;spacingLeft=4;spacingRight=4;overflow=hidden;rotatable=0;points=[[0,0.5],[1,0.5]];portConstraint=eastwest;whiteSpace=wrap;html=1;" vertex="1" parent="WNhP4XTEa9MC39SPgcuT-1">
          <mxGeometry y="26" width="290" height="54" as="geometry" />
        </mxCell>
        <mxCell id="WNhP4XTEa9MC39SPgcuT-3" value="" style="line;strokeWidth=1;fillColor=none;align=left;verticalAlign=middle;spacingTop=-1;spacingLeft=3;spacingRight=3;rotatable=0;labelPosition=right;points=[];portConstraint=eastwest;strokeColor=inherit;" vertex="1" parent="WNhP4XTEa9MC39SPgcuT-1">
          <mxGeometry y="80" width="290" height="8" as="geometry" />
        </mxCell>
        <mxCell id="WNhP4XTEa9MC39SPgcuT-4" value="+ initialise()&lt;br&gt;+ getRotor(String) : Rotor&lt;br&gt;+ getReflector(String) : Reflector&lt;br&gt;+ addRotor(String, Rotor)&lt;br&gt;+ addReflector(String, Reflector" style="text;strokeColor=none;fillColor=none;align=left;verticalAlign=top;spacingLeft=4;spacingRight=4;overflow=hidden;rotatable=0;points=[[0,0.5],[1,0.5]];portConstraint=eastwest;whiteSpace=wrap;html=1;" vertex="1" parent="WNhP4XTEa9MC39SPgcuT-1">
          <mxGeometry y="88" width="290" height="92" as="geometry" />
        </mxCell>
        <mxCell id="WNhP4XTEa9MC39SPgcuT-5" value="" style="endArrow=open;html=1;endSize=12;startArrow=diamondThin;startSize=14;startFill=1;edgeStyle=orthogonalEdgeStyle;align=left;verticalAlign=bottom;rounded=0;entryX=0;entryY=0.5;entryDx=0;entryDy=0;exitX=0;exitY=0.5;exitDx=0;exitDy=0;" edge="1" parent="1" source="CdXzb7p_uJ0kPg4sfLAn-8" target="WNhP4XTEa9MC39SPgcuT-4">
          <mxGeometry x="-1" y="3" relative="1" as="geometry">
            <mxPoint x="110" y="1060" as="sourcePoint" />
            <mxPoint x="270" y="1060" as="targetPoint" />
            <Array as="points">
              <mxPoint x="-70" y="857" />
              <mxPoint x="-70" y="1014" />
            </Array>
          </mxGeometry>
        </mxCell>
        <mxCell id="WNhP4XTEa9MC39SPgcuT-7" value="" style="endArrow=open;html=1;endSize=12;startArrow=diamondThin;startSize=14;startFill=1;edgeStyle=orthogonalEdgeStyle;align=left;verticalAlign=bottom;rounded=0;exitX=1;exitY=0.5;exitDx=0;exitDy=0;entryX=1;entryY=0.5;entryDx=0;entryDy=0;" edge="1" parent="1" source="CdXzb7p_uJ0kPg4sfLAn-40" target="WNhP4XTEa9MC39SPgcuT-4">
          <mxGeometry x="-1" y="3" relative="1" as="geometry">
            <mxPoint x="820" y="760" as="sourcePoint" />
            <mxPoint x="980" y="760" as="targetPoint" />
            <Array as="points">
              <mxPoint x="840" y="258" />
              <mxPoint x="840" y="1014" />
            </Array>
          </mxGeometry>
        </mxCell>
      </root>
    </mxGraphModel>
  </diagram>
</mxfile>
